<?xml version="1.0" standalone="no"?>
<!DOCTYPE svg PUBLIC "-//W3C//DTD SVG 20010904//EN"
 "http://www.w3.org/TR/2001/REC-SVG-20010904/DTD/svg10.dtd">
<svg version="1.0" xmlns="http://www.w3.org/2000/svg"
 width="1535.000000pt" height="1535.000000pt" viewBox="0 0 1535.000000 1535.000000"
 preserveAspectRatio="xMidYMid meet">
<metadata>
Created by potrace 1.11, written by Peter Selinger 2001-2013
</metadata>
<g transform="translate(0.000000,1535.000000) scale(0.100000,-0.100000)"
fill="#000000" stroke="none">
<path d="M7742 15148 c-48 -119 -188 -421 -302 -653 -195 -394 -340 -662 -708
-1310 -545 -958 -749 -1360 -937 -1840 -116 -296 -229 -678 -266 -898 -7 -42
-16 -77 -20 -77 -3 0 -44 17 -90 39 -289 133 -671 239 -1039 288 -104 14 -201
18 -420 18 -312 -1 -409 -11 -659 -75 -464 -118 -914 -360 -1221 -657 l-95
-92 302 -1 302 0 93 60 c179 117 424 225 666 294 472 136 1027 108 1606 -81
283 -92 470 -184 714 -349 85 -58 156 -103 158 -102 1 2 14 108 29 237 51 457
138 814 300 1231 189 487 377 855 937 1840 243 428 432 769 558 1013 56 109
103 197 105 195 1 -2 55 -104 120 -228 148 -282 268 -500 555 -1005 534 -941
725 -1313 904 -1767 176 -446 267 -813 320 -1292 14 -120 27 -220 29 -222 2
-2 75 45 163 104 297 201 589 328 970 421 320 78 696 109 962 80 352 -38 738
-173 1046 -367 l98 -62 301 0 301 0 -59 61 c-78 79 -245 213 -366 294 -335
223 -721 376 -1134 447 -114 20 -165 23 -415 23 -311 0 -428 -11 -700 -65
-261 -52 -614 -166 -792 -256 -26 -13 -51 -24 -57 -24 -5 0 -12 20 -15 44 -13
85 -76 339 -122 495 -164 547 -418 1092 -947 2026 -346 612 -477 844 -566
1010 -124 228 -412 807 -488 980 -124 280 -109 254 -121 223z"/>
<path d="M7751 13927 c-8 -128 -262 -3775 -265 -3809 l-5 -48 274 0 275 0 -1
33 c-1 51 -277 3844 -278 3824z"/>
<path d="M7654 9875 c-133 -29 -264 -122 -326 -233 l-30 -53 -47 7 c-25 5 -95
8 -156 8 -232 0 -319 -64 -318 -234 1 -129 55 -231 131 -246 37 -8 37 -7 15
62 -20 66 -11 93 44 120 33 17 63 19 253 20 269 2 338 18 380 87 32 52 27 67
-24 67 -47 0 -108 33 -114 62 -6 31 139 61 298 62 162 1 285 -39 320 -104 19
-35 182 -1113 169 -1120 -23 -15 -333 -35 -514 -33 -211 1 -352 19 -347 43 2
8 39 132 82 275 128 428 129 431 60 486 -74 60 -134 73 -354 77 l-198 4 32
-47 c37 -53 117 -109 217 -151 37 -15 69 -29 71 -30 6 -3 -98 -275 -138 -359
-30 -66 -51 -93 -118 -157 -100 -95 -142 -112 -205 -81 -106 51 -348 252 -662
549 -110 104 -243 224 -295 265 -318 255 -646 410 -967 458 -49 8 -572 11
-1653 11 l-1581 0 6 -22 c11 -35 54 -108 91 -154 42 -52 116 -100 174 -113 66
-15 384 -54 904 -111 253 -28 462 -53 465 -55 2 -3 -296 -5 -662 -5 -367 0
-667 -3 -667 -7 0 -19 107 -148 156 -187 119 -98 116 -97 994 -195 l255 -29
-513 -1 -513 -1 32 -61 c39 -72 125 -163 192 -202 91 -54 267 -81 902 -142
148 -14 271 -28 274 -30 2 -3 -208 -5 -467 -5 -260 0 -472 -4 -472 -8 0 -17
112 -143 162 -183 86 -67 156 -97 281 -119 127 -21 508 -69 797 -100 107 -12
200 -23 205 -25 6 -2 -196 -4 -448 -4 l-458 -1 12 -22 c26 -49 155 -164 227
-201 88 -47 113 -51 672 -132 l435 -63 -382 -1 c-211 -1 -383 -5 -383 -10 0
-20 172 -171 248 -218 111 -68 174 -86 477 -133 143 -22 328 -51 410 -64 l150
-24 -275 -1 -275 -2 40 -34 c57 -49 187 -136 275 -184 109 -58 269 -100 710
-185 l125 -24 -200 -1 -199 -1 389 -233 390 -232 3 -41 3 -41 -450 -438 -450
-439 61 -88 c121 -177 263 -320 469 -473 101 -76 236 -161 243 -154 2 2 106
237 231 521 l227 516 -50 124 c-193 474 -288 1098 -261 1721 7 169 24 355 33
365 2 1 336 79 742 173 l738 170 740 -171 c407 -93 740 -171 742 -173 11 -11
27 -240 31 -462 12 -621 -72 -1140 -264 -1622 l-44 -112 226 -518 c125 -285
231 -522 235 -527 22 -22 323 198 484 354 101 98 236 262 271 330 l15 29 -448
436 c-420 411 -447 439 -450 475 l-3 38 391 234 391 233 -198 3 -198 4 180 34
c283 54 494 103 565 131 89 35 185 92 310 182 l105 76 -280 3 -280 4 409 64
c226 35 435 71 465 80 118 34 240 112 351 224 l75 75 -385 4 -385 3 440 64
c242 35 474 70 515 78 89 18 177 60 242 114 50 42 138 140 138 154 0 4 -204 8
-452 9 -249 0 -448 2 -443 4 6 2 154 20 330 40 405 45 673 81 749 100 107 27
207 95 299 204 87 101 133 91 -405 92 -296 1 -454 5 -423 10 28 5 196 23 375
40 451 43 636 71 714 107 75 35 170 121 213 193 59 99 114 89 -468 90 l-514 1
305 34 c168 18 413 47 544 64 298 37 329 49 450 173 45 46 89 97 99 115 l18
32 -673 1 c-422 1 -654 5 -623 10 28 5 259 32 515 60 618 67 808 93 867 119
79 34 166 132 208 233 l15 37 -1627 -3 -1628 -2 -105 -27 c-146 -36 -283 -89
-428 -164 -235 -122 -420 -260 -683 -510 -371 -354 -640 -573 -724 -590 -56
-11 -111 57 -149 186 -9 30 -52 271 -96 535 l-80 479 71 121 c40 66 73 122 74
125 2 3 -61 6 -139 8 -77 1 -210 11 -294 22 -175 23 -290 24 -378 5z"/>
<path d="M1581 9325 c-105 -212 -177 -435 -216 -666 -36 -218 -36 -591 0 -827
95 -631 376 -1175 854 -1652 335 -335 684 -573 1119 -766 l54 -24 -5 23 c-2
12 -13 56 -23 97 -28 119 -26 385 5 510 31 126 61 203 127 330 151 290 401
543 666 674 l107 53 -191 127 -190 127 -67 -44 c-298 -199 -546 -480 -696
-792 -57 -117 -114 -274 -135 -367 -7 -32 -16 -58 -19 -58 -4 0 -59 39 -123
88 -396 296 -676 625 -868 1017 -116 236 -181 441 -227 712 -22 136 -25 541
-5 673 20 122 75 331 116 434 l36 90 -130 173 c-72 95 -132 173 -133 173 -2 0
-27 -47 -56 -105z"/>
<path d="M13760 9287 c-58 -77 -115 -154 -128 -171 l-22 -32 40 -106 c45 -120
82 -258 107 -403 24 -140 24 -505 0 -666 -106 -708 -498 -1321 -1145 -1789
-40 -29 -74 -51 -76 -49 -2 2 -15 47 -30 99 -128 456 -408 838 -813 1111 l-73
49 -189 -126 -190 -127 99 -48 c381 -187 734 -647 806 -1049 27 -155 16 -416
-25 -557 -5 -18 -7 -33 -4 -33 4 0 106 49 227 109 816 402 1438 1091 1691
1872 89 275 124 493 132 809 8 336 -26 577 -119 855 -38 115 -156 376 -174
387 -5 3 -56 -57 -114 -135z"/>
<path d="M2696 8200 c-3 -8 -42 -126 -86 -262 l-81 -248 -268 -2 -269 -3 214
-155 c118 -85 214 -161 214 -168 0 -7 -36 -123 -80 -259 -45 -135 -79 -247
-78 -248 2 -1 101 69 221 156 l218 159 215 -156 c118 -86 217 -154 219 -152 3
2 -31 115 -75 250 -44 135 -80 250 -80 255 0 4 97 78 215 163 l215 155 -270 3
-269 2 -51 158 c-100 313 -119 367 -124 352z"/>
<path d="M12707 7975 c-43 -132 -82 -250 -87 -262 -9 -23 -11 -23 -277 -25
l-267 -3 212 -154 c117 -84 214 -157 217 -160 2 -4 -19 -74 -46 -156 -27 -83
-64 -198 -83 -257 l-34 -108 41 29 c23 16 123 88 221 160 l180 130 30 -22 c17
-11 112 -80 211 -152 99 -72 185 -134 191 -138 11 -7 -13 76 -111 372 -25 74
-42 138 -39 142 2 5 100 77 216 161 l212 153 -270 3 -269 2 -85 262 -85 262
-78 -239z"/>
<path d="M7091 7731 l-635 -147 -8 -29 c-12 -48 -21 -430 -13 -587 l7 -148
1308 0 1308 0 6 28 c19 101 12 709 -9 730 -8 9 -1287 302 -1310 301 -11 -1
-306 -68 -654 -148z m762 -31 l62 -1 -27 -20 c-73 -54 -71 -51 -58 -97 6 -24
14 -51 18 -60 4 -11 -7 -6 -33 14 -62 48 -62 48 -106 13 -22 -17 -42 -29 -44
-27 -3 3 2 26 12 53 18 54 21 47 -55 104 l-27 20 61 1 60 0 19 58 18 57 19
-57 20 -58 61 0z m-419 -52 c15 -38 15 -38 72 -38 l57 0 -47 -35 c-25 -20 -46
-37 -46 -39 0 -2 7 -23 15 -46 22 -62 20 -64 -29 -30 -25 16 -48 30 -53 30 -4
0 -26 -14 -47 -30 -22 -17 -41 -29 -42 -27 -2 2 4 27 13 55 16 51 16 53 -3 66
-10 8 -30 23 -44 35 l-25 20 57 1 57 0 18 56 c13 43 19 52 25 38 4 -11 14 -36
22 -56z m690 0 c15 -38 15 -38 73 -39 58 0 58 0 33 -17 -70 -48 -72 -53 -55
-101 22 -63 20 -66 -27 -32 -23 17 -46 31 -51 31 -4 0 -23 -11 -40 -24 -56
-41 -57 -40 -37 19 l19 55 -47 32 -47 33 57 3 57 3 18 56 c13 42 19 51 25 37
4 -11 14 -36 22 -56z m419 -118 l62 -1 -23 -19 c-13 -11 -35 -28 -49 -38 l-25
-18 16 -54 c9 -29 16 -55 16 -57 0 -2 -22 13 -49 32 l-48 35 -47 -36 c-25 -19
-46 -31 -46 -26 0 5 7 30 16 57 l17 48 -26 19 c-14 10 -36 27 -49 38 l-23 19
62 1 62 0 18 56 17 56 19 -56 19 -56 61 0z m-1463 45 l13 -45 61 0 61 -1 -27
-23 c-15 -13 -36 -31 -47 -38 l-21 -15 20 -57 c20 -60 20 -60 -43 -15 l-38 28
-49 -35 -48 -35 14 47 c20 67 19 69 -32 106 l-47 33 64 5 63 5 15 47 c8 26 17
45 21 43 4 -3 13 -25 20 -50z m1813 -135 l61 0 -51 -36 -51 -36 18 -54 c11
-30 17 -54 14 -54 -3 0 -25 14 -49 31 l-44 32 -42 -32 c-24 -17 -45 -29 -47
-26 -2 2 3 26 12 52 18 53 21 47 -52 102 l-27 20 61 1 61 0 13 48 c19 70 22
71 43 9 l19 -57 61 0z m-2162 53 l15 -48 63 -3 64 -3 -51 -35 -50 -36 18 -54
c11 -30 17 -54 14 -54 -3 0 -25 14 -49 31 l-44 32 -42 -32 c-24 -17 -45 -29
-47 -26 -2 2 3 25 12 51 9 26 16 49 16 50 0 2 -21 18 -46 36 l-47 33 59 5 58
5 15 48 c8 26 17 47 21 47 4 0 13 -21 21 -47z m492 -403 l62 -1 -27 -20 c-76
-57 -73 -50 -55 -104 10 -27 15 -50 13 -52 -2 -3 -23 9 -46 26 -45 32 -46 32
-98 -6 -18 -14 -35 -23 -38 -21 -2 3 3 26 13 53 18 54 21 47 -55 104 l-27 20
62 1 62 0 18 56 17 56 19 -56 19 -56 61 0z m333 55 l18 -55 60 0 c67 -1 68 1
-8 -55 l-27 -20 17 -48 c9 -26 14 -50 12 -53 -3 -2 -24 10 -47 26 -44 33 -46
33 -103 -13 -21 -16 -38 -27 -38 -24 0 2 7 24 15 47 21 61 20 65 -31 105 l-47
35 61 0 61 0 17 55 c10 30 19 55 20 55 2 0 11 -25 20 -55z m430 0 l18 -55 60
0 61 -1 -27 -20 c-76 -57 -73 -50 -55 -104 10 -27 15 -50 12 -53 -2 -2 -22 10
-44 27 -44 35 -44 35 -106 -13 -25 -20 -37 -25 -33 -14 4 9 12 35 19 58 14 46
10 53 -61 102 -25 17 -24 17 37 17 l62 1 17 55 c10 30 19 55 20 55 2 0 11 -25
20 -55z m907 -55 l61 0 -51 -38 c-50 -37 -50 -37 -38 -72 30 -87 32 -85 -24
-45 l-50 36 -42 -31 c-23 -16 -44 -28 -47 -26 -2 3 3 27 12 53 18 53 23 44
-50 100 l-29 22 61 0 60 1 19 58 18 57 19 -57 20 -58 61 0z m-2162 53 l15 -48
63 -3 63 -3 -49 -37 c-50 -37 -50 -37 -38 -72 30 -87 32 -85 -24 -45 l-51 37
-42 -31 c-23 -17 -44 -29 -46 -26 -2 2 3 26 12 52 16 48 16 48 -8 66 -13 10
-35 26 -48 37 l-23 19 62 1 61 0 12 50 c7 28 15 50 19 50 4 0 14 -21 22 -47z
m1670 0 l15 -48 59 -5 60 -5 -47 -34 c-27 -19 -48 -35 -48 -36 0 -1 7 -23 16
-49 9 -26 14 -49 12 -51 -2 -3 -23 9 -46 26 l-42 31 -50 -37 -49 -36 15 53 c9
29 17 56 17 60 1 3 -20 22 -47 42 l-49 35 63 3 64 3 15 48 c8 26 17 47 21 47
4 0 13 -21 21 -47z"/>
<path d="M6466 6573 c34 -239 101 -538 158 -698 l25 -70 0 403 1 402 -94 0
-95 0 5 -37z"/>
<path d="M6850 5988 l0 -623 75 -110 c41 -60 85 -123 99 -140 l25 -30 1 763 0
762 -100 0 -100 0 0 -622z"/>
<path d="M7260 5739 c0 -722 2 -874 14 -883 52 -43 164 -126 169 -126 4 0 7
423 7 940 l0 940 -95 0 -95 0 0 -871z"/>
<path d="M7660 5605 l0 -1005 40 -20 c49 -25 50 -25 105 1 l45 21 0 1004 0
1004 -95 0 -95 0 0 -1005z"/>
<path d="M8060 5669 l0 -941 31 20 c17 10 62 45 100 76 l69 56 0 865 0 865
-100 0 -100 0 0 -941z"/>
<path d="M8460 5853 l1 -758 30 35 c17 19 62 82 100 139 l69 104 0 619 0 618
-100 0 -100 0 0 -757z"/>
<path d="M8861 6213 l1 -398 35 105 c46 143 88 316 118 493 36 215 42 197 -65
197 l-90 0 1 -397z"/>
<path d="M4007 5313 c-98 -210 -158 -399 -194 -609 -25 -153 -26 -628 0 -789
64 -408 226 -771 484 -1090 289 -356 685 -605 1109 -696 142 -31 429 -38 579
-14 130 20 247 53 364 102 47 19 91 37 98 40 7 3 40 -51 82 -134 305 -601 695
-1131 1109 -1509 l114 -104 51 42 c93 77 340 330 446 458 280 335 521 701 719
1095 42 83 77 151 78 153 1 2 54 -17 118 -43 231 -92 392 -120 660 -113 198 5
333 29 505 90 633 222 1154 820 1325 1519 49 204 60 313 61 599 0 292 -11 393
-64 596 -50 189 -179 503 -201 489 -5 -3 -10 -28 -10 -55 0 -104 -43 -268
-107 -410 -94 -207 -320 -465 -478 -547 -115 -59 -203 -84 -321 -90 -210 -12
-451 64 -673 209 l-84 56 -163 -117 c-90 -64 -164 -118 -164 -121 0 -8 150
-118 238 -175 167 -107 401 -199 591 -230 137 -23 380 -17 491 13 181 48 328
123 471 238 45 36 82 64 83 62 2 -2 -1 -52 -5 -113 -56 -796 -641 -1490 -1358
-1610 -144 -24 -338 -17 -473 18 -198 52 -334 121 -513 261 -60 47 -112 82
-116 78 -3 -4 -30 -74 -59 -157 -167 -480 -554 -1110 -956 -1559 l-89 -99 -64
69 c-406 436 -832 1130 -991 1609 -23 72 -46 133 -49 138 -4 4 -45 -22 -92
-59 -221 -173 -401 -260 -623 -299 -745 -130 -1535 501 -1715 1371 -21 101
-46 324 -39 345 2 6 30 -10 63 -38 173 -143 354 -230 564 -269 139 -26 382
-15 532 24 142 37 305 104 428 177 95 56 291 194 291 204 0 3 -75 59 -166 123
l-166 117 -46 -33 c-258 -183 -575 -270 -809 -222 -177 36 -290 102 -444 263
-220 230 -335 476 -364 782 -2 30 -6 56 -8 58 -2 2 -24 -41 -50 -94z"/>
<path d="M8812 5266 c-93 -158 -202 -297 -349 -445 l-134 -134 157 -376 c87
-207 158 -377 160 -379 6 -9 196 33 247 54 33 13 66 24 73 24 18 0 144 -204
130 -211 -25 -14 -157 -38 -241 -44 -151 -11 -195 -52 -195 -186 0 -91 33
-159 99 -201 25 -15 46 -26 48 -24 2 2 -1 24 -8 49 -14 56 0 107 38 137 25 19
39 20 550 20 l525 0 29 -29 c25 -26 29 -37 29 -88 0 -32 -4 -73 -9 -91 -5 -17
-6 -32 -1 -32 4 0 31 21 60 47 100 90 137 227 91 330 -32 69 -58 77 -251 78
-183 1 -234 10 -398 73 -71 27 -104 46 -137 79 -42 42 -141 181 -134 187 2 2
29 18 59 36 74 45 98 67 105 100 6 28 8 25 -365 880 -56 129 -106 238 -109
243 -4 4 -35 -39 -69 -97z"/>
<path d="M6621 5339 c-5 -13 -68 -159 -141 -324 -241 -548 -320 -736 -320
-761 0 -41 16 -59 90 -103 38 -23 70 -46 70 -52 0 -15 -79 -128 -123 -176 -42
-46 -121 -83 -273 -129 -80 -24 -107 -27 -259 -29 -93 -1 -181 -6 -195 -12
-56 -24 -82 -76 -83 -167 0 -58 5 -81 26 -123 33 -63 74 -111 118 -137 l32
-19 -6 24 c-28 102 -12 190 38 209 35 13 1034 14 1069 0 50 -18 71 -112 41
-182 -22 -53 90 30 125 92 20 37 25 59 25 120 0 133 -43 174 -193 185 -83 5
-213 30 -239 44 -9 5 6 38 52 113 l65 106 73 -28 c70 -28 244 -66 254 -57 9 9
313 739 312 751 0 6 -27 34 -60 61 -129 107 -310 327 -423 514 -31 52 -59 97
-61 99 -2 3 -9 -6 -14 -19z"/>
<path d="M8120 4544 c-36 -25 -132 -78 -213 -119 -138 -68 -151 -72 -180 -62
-55 19 -269 131 -335 175 -35 23 -67 42 -71 42 -13 0 -213 -532 -203 -542 17
-17 236 -56 388 -68 180 -16 504 -8 654 15 152 24 246 49 242 66 -7 33 -205
539 -211 538 -3 0 -35 -20 -71 -45z"/>
<path d="M11802 3094 c-155 -41 -276 -159 -323 -316 -18 -57 -21 -87 -17 -163
4 -81 10 -104 41 -169 81 -171 230 -266 417 -266 287 0 494 244 452 532 -40
276 -305 454 -570 382z m238 -79 c208 -72 313 -343 212 -548 -71 -143 -212
-227 -359 -214 -207 20 -355 202 -340 419 17 256 255 423 487 343z"/>
<path d="M11763 2893 c-10 -3 -13 -66 -13 -264 l0 -259 40 0 39 0 3 113 3 112
27 3 c14 2 45 -2 67 -8 46 -12 64 -39 76 -110 4 -25 13 -60 21 -77 12 -30 17
-33 55 -33 38 0 41 2 35 23 -4 12 -13 55 -21 95 -17 84 -26 104 -58 128 -18
13 -19 17 -7 22 28 10 68 62 72 94 11 75 -26 140 -91 158 -37 10 -226 13 -248
3z m202 -69 c43 -20 62 -63 46 -103 -17 -39 -53 -56 -120 -56 l-56 0 -3 74
c-2 41 -1 80 2 88 7 18 90 17 131 -3z"/>
</g>
</svg>
